{"title":"Better Late Than Never - S01E01 - Welcome To Tokyo","uid":15978583,"size":988914479,"categoryP":"video","categoryS":"tv_shows","magnet":"?xt=urn:btih:cd27ee4aa5f7124aad53b860658d9731616cafd0&amp;dn=Better+Late+Than+Never+-+S01E01+-+Welcome+To+Tokyo&amp;tr=udp%3A%2F%2Ftracker.leechers-paradise.org%3A6969&amp;tr=udp%3A%2F%2Fzer0day.ch%3A1337&amp;tr=udp%3A%2F%2Fopen.demonii.com%3A1337&amp;tr=udp%3A%2F%2Ftracker.coppersurfer.tk%3A6969&amp;tr=udp%3A%2F%2Fexodus.desync.com%3A6969","seeders":7,"leechers":3,"uploader":"Bullrout","files":1,"time":1475871121,"description":"Better Late Than Never - S01E01 - Welcome To Tokyo\r\n\r\nCelebrities Henry Winkler, William Shatner, Terry Bradshaw and George Foreman travel to Tokyo with comic and guide Jeff Dye to take part in local traditions, sample food and meet the local population.\r\n\r\nComplete name                            : Better Late Than Never - S01E01 - Welcome To Tokyo.mkv\r\nFormat                                   : Matroska\r\nFormat version                           : Version 4 / Version 2\r\nFile size                                : 943 MiB\r\nDuration                                 : 40 min 1 s\r\nOverall bit rate mode                    : Variable\r\nOverall bit rate                         : 3 294 kb/s\r\nEncoded date                             : UTC 2016-10-06 14:41:48\r\nWriting application                      : mkvmerge v9.4.2 ('So High') 64bit\r\nWriting library                          : libebml v1.3.4 + libmatroska v1.4.5\r\n\r\nVideo\r\nID                                       : 2\r\nFormat                                   : AVC\r\nFormat/Info                              : Advanced Video Codec\r\nFormat profile                           :   \r\nFormat settings, CABAC                   : Yes\r\nFormat settings, ReFrames                : 3 frames\r\nCodec ID                                 : V_MPEG4/ISO/AVC\r\nDuration                                 : 40 min 1 s\r\nBit rate mode                            : Variable\r\nBit rate                                 : 2 909 kb/s\r\nMaximum bit rate                         : 3 000 kb/s\r\nWidth                                    : 1 280 pixels\r\nHeight                                   : 720 pixels\r\nDisplay aspect ratio                     : 16:9\r\nFrame rate mode                          : Constant\r\nFrame rate                               : 25.000 FPS\r\nStandard                                 : PAL\r\nColor space                              : YUV\r\nChroma subsampling                       : 4:2:0\r\nBit depth                                : 8 bits\r\nScan type                                : Progressive\r\nBits/(Pixel*Frame)                       : 0.126\r\nStream size                              : 833 MiB (88%)\r\nWriting library                          : x264 core 112\r\nDefault                                  : Yes\r\nForced                                   : No\r\nColor range                              : Limited\r\nColor primaries                          : BT.709\r\nTransfer characteristics                 : BT.709\r\nMatrix coefficients                      : BT.709\r\n\r\nAudio\r\nID                                       : 1\r\nFormat                                   : AC-3\r\nFormat/Info                              : Audio Coding 3\r\nMode extension                           : CM (complete main)\r\nFormat settings, Endianness              : Big\r\nCodec ID                                 : A_AC3\r\nDuration                                 : 40 min 1 s\r\nBit rate mode                            : Constant\r\nBit rate                                 : 384 kb/s\r\nChannel(s)                               : 6 channels\r\nChannel positions                        : Front: L C R, Side: L R, LFE\r\nSampling rate                            : 48.0 kHz\r\nFrame rate                               : 31.250 FPS (1536 spf)\r\nCompression mode                         : Lossy\r\nStream size                              : 110 MiB (12%)\r\nDefault                                  : Yes\r\nForced                                   : No","torrent":{"xt":"urn:btih:cd27ee4aa5f7124aad53b860658d9731616cafd0","amp;dn":"Better+Late+Than+Never+-+S01E01+-+Welcome+To+Tokyo","amp;tr":["udp%3A%2F%2Ftracker.leechers-paradise.org%3A6969","udp%3A%2F%2Fzer0day.ch%3A1337","udp%3A%2F%2Fopen.demonii.com%3A1337","udp%3A%2F%2Ftracker.coppersurfer.tk%3A6969","udp%3A%2F%2Fexodus.desync.com%3A6969"],"infoHash":"cd27ee4aa5f7124aad53b860658d9731616cafd0","infoHashBuffer":{"type":"Buffer","data":[205,39,238,74,165,247,18,74,173,83,184,96,101,141,151,49,97,108,175,208]},"announce":[],"urlList":[]}}